<svg id="Layer_1" xmlns="http://www.w3.org/2000/svg" version="1.1" viewBox="0 0 220 200">
  <!-- Generator: Adobe Illustrator 29.8.3, SVG Export Plug-In . SVG Version: 2.1.1 Build 3)  -->
  <defs>
    <style>
      .st0 {
        fill: #C4B5FD;
      }

      .st1 {
        fill: #A78BFA;
      }

      .st2 {
        fill: #EDE9FE;
      }

      .st3 {
        fill: #DDD6FE;
      }

      .st4 {
        fill: #7C3AED;
      }
    </style>
  </defs>
  <polygon class="st3" points="110 20 180 60 110 100 40 60 110 20"/>
  <polygon class="st1" points="180 60 110 100 110 180 180 140 180 60"/>
  <polygon class="st0" points="40 60 110 100 110 180 40 140 40 60"/>
  <polygon class="st4" points="40 60 66 75 66 155 40 140 40 60"/>
  <polygon class="st4" points="84 85 110 100 110 180 84 165 84 85"/>
  <polygon class="st4" points="66 75 84 85 84 105 66 95 66 90 66 75"/>
  <polyline class="st4" points="118.39 158.25 118.39 153.25 118.39 138.25"/>
  <polygon class="st2" points="66 155 84 141.22 84 165 66 155"/>
  <line class="st4" x1="110" y1="100" x2="180" y2="60"/>
</svg>
